<svg width="36" height="38" viewBox="0 0 36 38" fill="none" xmlns="http://www.w3.org/2000/svg">
<path d="M30.515 3.85446C28.5963 1.66745 25.1278 0.729828 20.6905 0.729828H7.8125C7.37347 0.729844 6.94886 0.886471 6.61499 1.17155C6.28112 1.45663 6.05989 1.85146 5.99109 2.28505L0.628905 36.2933C0.522323 36.9639 1.0416 37.5712 1.72131 37.5712H9.67177L11.6685 24.9065L11.6065 25.3031C11.7488 24.4078 12.5144 23.7476 13.421 23.7476H17.1991C24.621 23.7476 30.4325 20.7329 32.1301 12.0123C32.1805 11.7544 32.2242 11.5034 32.2619 11.2581C32.0477 11.1446 32.0477 11.1446 32.2619 11.2581C32.7674 8.03487 32.2585 5.84084 30.515 3.85446Z" fill="#27346A"/>
<path d="M14.7106 10.097C14.928 9.99349 15.1657 9.93986 15.4064 9.94H25.5026C26.6981 9.94 27.8133 10.0178 28.8323 10.1818C29.1174 10.2273 29.4011 10.2816 29.6829 10.3446C30.0823 10.4327 30.477 10.5406 30.8658 10.6678C31.3667 10.8351 31.8333 11.0299 32.2621 11.2581C32.7674 8.03363 32.2585 5.84084 30.515 3.85446C28.5952 1.66745 25.1278 0.729828 20.6905 0.729828H7.81139C6.90461 0.729828 6.1332 1.38998 5.99109 2.28505L0.628906 36.2921C0.522323 36.9638 1.0416 37.5702 1.72021 37.5702H9.67177L13.8143 11.3005C13.855 11.0423 13.9579 10.7979 14.114 10.5882C14.2702 10.3786 14.4749 10.21 14.7106 10.097Z" fill="#27346A"/>
<path d="M32.13 6.74816C30.4324 15.4676 24.621 18.4834 17.1989 18.4834H13.4198C12.5131 18.4834 11.7473 19.1437 11.6065 20.0389L9.12243 35.786C9.02962 36.3729 9.48349 36.9047 10.0773 36.9047H16.7793C17.1632 36.9046 17.5345 36.7675 17.8264 36.5182C18.1183 36.2688 18.3116 35.9234 18.3716 35.5442L18.4368 35.2027L19.7 27.1972L19.7814 26.7547C19.8414 26.3755 20.0347 26.0302 20.3265 25.7808C20.6184 25.5314 20.9896 25.3943 21.3735 25.3942H22.3765C28.8689 25.3942 33.9525 22.7566 35.438 15.1284C36.0581 11.9406 35.7373 9.27902 34.0969 7.40955C33.5994 6.84331 32.9815 6.37567 32.2618 5.99396C32.2228 6.24045 32.1805 6.49024 32.13 6.74816Z" fill="#2790C3"/>
<path d="M30.4853 10.5498C30.2206 10.4725 29.9534 10.404 29.6842 10.3446C29.4022 10.2826 29.1186 10.2287 28.8336 10.1829C27.8135 10.0178 26.6992 9.93987 25.5025 9.93987H15.4076C15.1667 9.93932 14.9288 9.99342 14.7118 10.0981C14.4758 10.2107 14.2708 10.3792 14.1146 10.5889C13.9584 10.7986 13.8557 11.0433 13.8153 11.3016L11.6696 24.9065L11.6077 25.3031C11.7488 24.4078 12.5144 23.7476 13.4212 23.7476H17.2004C24.6223 23.7476 30.4337 20.7329 32.1313 12.0123C32.1818 11.7544 32.2243 11.5045 32.2632 11.2581C31.8333 11.0312 31.368 10.8351 30.8669 10.6689C30.7405 10.627 30.6133 10.5872 30.4855 10.5498" fill="#1F264F"/>
</svg>
